<?xml version="1.0" encoding="UTF-8" standalone="no"?>
<!-- Created with Inkscape (http://www.inkscape.org/) -->

<svg
   xmlns:dc="http://purl.org/dc/elements/1.1/"
   xmlns:cc="http://creativecommons.org/ns#"
   xmlns:rdf="http://www.w3.org/1999/02/22-rdf-syntax-ns#"
   xmlns:svg="http://www.w3.org/2000/svg"
   xmlns="http://www.w3.org/2000/svg"
   xmlns:xlink="http://www.w3.org/1999/xlink"
   version="1.1"
   width="210mm"
   height="297mm"
   id="svg2">
  <defs
     id="defs4">
    <filter
       color-interpolation-filters="sRGB"
       id="filter15977">
      <feGaussianBlur
         stdDeviation="4.4636422"
         id="feGaussianBlur15979" />
    </filter>
    <radialGradient
       cx="1049.4054"
       cy="260.33261"
       r="151.54768"
       fx="1049.4054"
       fy="260.33261"
       id="radialGradient11091"
       xlink:href="#linearGradient11085"
       gradientUnits="userSpaceOnUse"
       gradientTransform="matrix(-0.4814499,-0.4814499,0.6543995,-0.6543997,716.80238,973.82459)" />
    <linearGradient
       id="linearGradient11085">
      <stop
         id="stop11087"
         style="stop-color:#e8943a;stop-opacity:1"
         offset="0" />
      <stop
         id="stop11089"
         style="stop-color:#af412a;stop-opacity:1"
         offset="1" />
    </linearGradient>
    <radialGradient
       cx="3285"
       cy="7212"
       r="193"
       fx="3285"
       fy="7212"
       id="id1"
       xlink:href="#id0"
       gradientUnits="userSpaceOnUse" />
    <radialGradient
       cx="2578"
       cy="7263"
       r="140"
       fx="2578"
       fy="7263"
       id="id0"
       gradientUnits="userSpaceOnUse">
      <stop
         id="stop3758"
         style="stop-color:#c2c1c1;stop-opacity:1"
         offset="0" />
      <stop
         id="stop3760"
         style="stop-color:#ef9a48;stop-opacity:1"
         offset="1" />
    </radialGradient>
    <style
       type="text/css"
       id="style3755" />
    <radialGradient
       cx="2578"
       cy="7263"
       r="140"
       fx="2578"
       fy="7263"
       id="radialGradient3923"
       xlink:href="#id0"
       gradientUnits="userSpaceOnUse" />
    <filter
       color-interpolation-filters="sRGB"
       id="filter4156">
      <feFlood
         result="flood"
         flood-color="rgb(0,0,0)"
         flood-opacity="0.446"
         id="feFlood4158" />
      <feComposite
         in2="SourceGraphic"
         operator="in"
         in="flood"
         result="composite1"
         id="feComposite4160" />
      <feGaussianBlur
         result="blur"
         stdDeviation="7.9"
         id="feGaussianBlur4162" />
      <feOffset
         result="offset"
         dy="20"
         dx="20"
         id="feOffset4164" />
      <feComposite
         in2="offset"
         operator="over"
         in="SourceGraphic"
         result="composite2"
         id="feComposite4166" />
    </filter>
  </defs>
  <metadata
     id="metadata7">
    <rdf:RDF>
      <cc:Work
         rdf:about="">
        <dc:format>image/svg+xml</dc:format>
        <dc:type
           rdf:resource="http://purl.org/dc/dcmitype/StillImage" />
        <dc:title></dc:title>
      </cc:Work>
    </rdf:RDF>
  </metadata>
  <g
     id="layer1">
    <g
       id="g3944"
       style="filter:url(#filter4156)">
      <g
         transform="matrix(3.4924804,0,0,3.4924804,127.98131,161.71529)"
         id="g3156"
         style="overflow:visible">
        <g
           id="g3">
          <path
             d="m 123.401,68.955 c 0,15.089 1.22,31.785 -1.287,46.742 0,6.637 -6.186,7.342 -11.201,7.558 -9.125,0.391 -18.254,0.683 -27.384,0.876 -21.801,0.461 -43.604,0.123 -65.391,-0.717 C 14.177,123.26 8.153,123.976 5.096,120.92 2.285,118.108 2.415,111.886 2.02,108.144 -1.485,75.026 0.065,41.534 2.925,8.42 3.694,-0.483 12.646,0.947 19.013,0.947 c 10.396,0 20.793,0 31.189,0 18.559,0 37.117,0 55.675,0 6.322,0 16.008,11.667 16.277,17.639 0.759,16.774 1.247,33.576 1.247,50.369"
             id="path5"
             style="fill:#7a7979" />
          <path
             d="m 27.329,46.749 c 18.541,0 37.082,0 55.622,0 6.87,0 12.079,0.066 12.079,-8.338 0,-10.816 0,-21.634 0,-32.451 0,-0.719 0.474,-5.012 -0.359,-5.012 -2.871,0 -5.74,0 -8.61,0 -11.394,0 -22.787,0 -34.181,0 -9.287,0 -18.572,0 -27.859,0 -4.178,0 -1.882,13.214 -1.882,16.61 0,5.062 -3.607,29.191 5.19,29.191"
             id="path7"
             style="fill:#494848" />
          <path
             d="m 63.417,124.357 c 10.597,0 21.194,-0.205 31.786,-0.53 6.691,-0.203 6.42,0.643 6.42,-5.324 0,-11.325 0,-22.651 0,-33.978 0,-5.271 2.286,-17.096 -5.841,-17.096 -8.368,0 -16.735,0 -25.104,0 -11.39,0 -22.779,0 -34.169,0 -5.292,0 -14.371,-1.73 -14.371,6.08 0,9.929 0,19.859 0,29.793 0,5.051 0,10.102 0,15.151 0,5.886 -0.34,5.112 6.249,5.316 11.673,0.361 23.351,0.588 35.03,0.588"
             id="path9"
             style="fill:#494848" />
          <path
             d="m 63.417,124.357 c 10.597,0 21.192,-0.205 31.784,-0.528 5.763,-0.177 4.385,-0.968 4.385,-6.226 0,-11.211 0,-22.423 0,-33.634 0,-6.279 1.563,-14.316 -6.981,-14.316 -9.744,0 -19.489,0 -29.233,0 -10.315,0 -20.63,0 -30.946,0 -8.233,0 -8.249,5.124 -8.249,12.042 0,11.237 0,22.476 0,33.712 0,2.723 0,5.445 0,8.167 0,0.396 28.178,0.719 30.519,0.741 2.906,0.026 5.813,0.042 8.721,0.042"
             id="path11"
             style="fill:#e5e5e5" />
          <path
             d="m 41.612,46.749 c 8.284,0 16.567,0 24.851,0 7.297,0 17.957,2.082 25.016,-0.266 6.677,-2.22 3.551,-20.977 3.551,-25.973 0,-2.686 1.48,-19.563 -1.191,-19.563 -18.882,0 -37.763,0 -56.644,0 -1.698,0 -0.772,18.774 -0.772,21.048 -0.001,4.814 -3.191,24.754 5.189,24.754"
             id="path13"
             style="fill:#c6c6c6" />
          <path
             d="m 92.579,6.296 c 0,7.292 -41.287,1.35 -45.849,2.037 -5.703,0.86 -4.711,12.506 -4.87,16.392 -0.04,0.999 0.247,7.374 -1.449,7.405 -2.374,0.045 -2.4,-8.357 -2.44,-9.618 C 37.865,19.125 36.124,7.71 39.651,5.569 45.255,2.165 54.761,3.67 60.96,3.614 64.387,3.583 92.579,1.231 92.579,6.296"
             id="path15"
             style="fill:#ffffff" />
          <path
             d="m 95.125,1.303 c 0,1.577 -58.838,1.577 -58.838,0 10e-4,-1.737 58.838,-1.737 58.838,0"
             id="path17"
             style="fill:#aaaaaa" />
          <path
             d="m 81.373,40.681 c -3.975,0 -7.949,0 -11.926,0 -1.711,0 -0.812,-4.888 -0.812,-6.283 0,-5.217 0,-10.433 0,-15.647 0,-1.315 -0.946,-7.907 0,-8.887 1.226,-1.266 9.992,0 11.926,0 1.712,0 0.812,4.889 0.812,6.283 0,8.179 0,16.356 0,24.534"
             id="path19"
             style="fill:#494848" />
          <path
             d="m 81.627,41.829 c 0,0.959 -13.246,0.959 -13.246,0 0,-0.961 13.246,-0.963 13.246,0"
             id="path21"
             style="fill:#ffffff" />
          <path
             d="m 91.328,47.926 c 0.966,0.066 4.436,-2.105 4.436,-3.167 0,7.578 -30.106,4.571 -34.18,4.579 -3.785,0.009 -39.56,2.571 -39.56,-3.944 0,4.419 28.414,1.934 31.07,1.922 12.713,-0.058 25.538,-0.255 38.234,0.61"
             id="path23"
             style="fill:#878787" />
          <path
             d="m 102.932,123.656 c 0,1.722 -79.871,1.722 -79.871,0 0.001,-1.725 79.871,-1.725 79.871,0"
             id="path25"
             style="fill:#aaaaaa" />
          <path
             d="m 20.529,4.385 c 0,0.746 -14.66,0.781 -14.66,5.504 0,-6.53 14.66,-7.439 14.66,-5.504"
             id="path27"
             style="fill:#878787" />
          <path
             d="m 96.958,3.762 c 0,0.931 6.854,0.722 7.366,0.881 2.245,0.696 4.217,2.726 5.882,4.281 1.275,1.191 8.179,6.583 8.179,8.341 0,-2.614 -4.96,-7.391 -6.563,-9.129 -1.662,-1.802 -3.567,-3.629 -5.853,-4.609 -1.124,-0.482 -9.011,-1.019 -9.011,0.235"
             id="path29"
             style="fill:#878787" />
          <path
             d="m 94.364,73.541 c 0,0.983 -38.837,0.449 -44.861,1.5 -14.662,2.555 -21.778,13.818 -22.674,28.127 0.249,-3.98 0.11,-29.573 2.874,-29.82 6.106,-0.548 64.661,-1.192 64.661,0.193"
             id="path31"
             style="fill:#ffffff" />
          <line
             id="line33"
             style="fill:none;stroke:#9a9999"
             x1="28.715"
             x2="95.577003"
             y1="108.745"
             y2="108.745" />
          <line
             id="line35"
             style="fill:none;stroke:#9a9999"
             x1="28.333"
             x2="95.577003"
             y1="116.195"
             y2="116.195" />
        </g>
      </g>
      <g
         transform="matrix(-0.85290326,0,0,0.85290326,659.98123,298.98188)"
         id="g3506">
        <g
           id="layer1-9" />
        <g
           id="layer2" />
        <g
           id="layer3"
           style="opacity:0">
          <rect
             width="501.2739"
             height="501.2739"
             x="0.63694245"
             y="2.547771"
             id="rect8022"
             style="fill:#ff7f2a;fill-opacity:1;stroke:#ff0000;stroke-width:1;stroke-linejoin:round;stroke-miterlimit:4;stroke-opacity:1;stroke-dasharray:none" />
        </g>
        <g
           transform="translate(0,2)"
           id="layer4">
          <path
             d="m 161.78344,162.42038 c -26.16266,19.7719 -43.02713,41.46756 -20.38217,71.33758 15.11152,21.34975 38.41949,22.33212 36.94268,38.21656 13.45101,-9.93878 28.37625,-6.60954 45.22293,14.01274 16.7568,34.17926 5.11761,43.34474 -8.28026,49.04459 18.96952,3.48325 17.23673,25.25873 31.84713,54.14013 24.24732,28.51922 53.03461,39.27375 73.88536,35.66878 34.64613,-4.28964 50.26226,-14.29218 72.61146,-29.9363 26.97794,-20.4336 50.77701,-41.37676 48.40765,-71.97452 -1.85633,-23.97236 -15.24517,-40.78506 -35.03185,-54.77707 -18.75702,-13.2189 -36.40296,-10.5936 -41.40127,-29.93631 -11.35085,9.32511 -25.95621,12.46665 -54.14013,-10.19108 -30.01583,-28.71429 -9.14137,-26.59318 -5.73249,-34.39491 -18.24616,-0.91996 -13.83194,-20.79386 -28.66242,-36.94267 -22.97921,-22.38077 -52.3942,-24.53482 -87.26114,-9.55414 l 0,0 0,0"
             id="path8016"
             style="fill:#a8412e;fill-opacity:1;fill-rule:evenodd;stroke:#000000;stroke-width:1px;stroke-linecap:butt;stroke-linejoin:miter;stroke-opacity:1" />
          <path
             d="m 164.98268,165.41283 c -23.62428,18.91542 -41.60318,40.84539 -18.877,68.89785 15.23443,20.05969 35.27197,17.60753 34.65458,32.63928 12.15694,-9.51077 29.5272,-2.02996 46.35676,17.32726 14.2178,29.62883 8.18437,44.76259 -4.12818,50.26486 17.99311,3.13377 19.33168,44.75696 28.72799,54.10794 23.84784,26.12479 53.01093,34.77723 72.42797,31.19298 32.3463,-4.34783 47.80843,-15.21102 70.59744,-30.19134 24.35826,-19.54796 46.06529,-39.70795 42.70866,-72.2732 -3.26013,-20.2711 -18.29021,-35.89832 -37.56074,-48.96161 -18.26554,-12.34097 -30.89713,-7.16226 -36.53161,-25.40939 -10.21334,8.91282 -26.96926,9.45853 -54.55026,-11.7278 -29.59598,-26.8976 -14.3376,-30.16337 -10.23896,-36.29503 -15.91525,-2.62698 -8.90961,-20.81872 -23.62777,-35.9631 -22.67709,-20.96829 -50.76166,-23.13038 -82.79703,-8.67192"
             id="path8030"
             style="fill:url(#radialGradient11091);fill-opacity:1;fill-rule:evenodd;stroke:#000000;stroke-width:0.94279218px;stroke-linecap:butt;stroke-linejoin:miter;stroke-opacity:1" />
          <path
             d="M 234.3949,236.30573 98.089172,93.630573 C 89.399837,84.261811 82.583071,80.503484 73.88535,84.713376 90.021231,73.673034 103.60934,72.823781 114.64968,82.165605 l 74.54578,66.159385 78.32046,69.5094 c -12.05719,-0.96087 -22.7465,7.65351 -33.12102,18.47134 z"
             id="path8050"
             style="fill:#000000;fill-opacity:1;fill-rule:evenodd;stroke:#000000;stroke-width:1px;stroke-linecap:butt;stroke-linejoin:miter;stroke-opacity:1" />
          <path
             d="m 94.267516,98.726115 -11.464968,5.095545 c 1.404091,6.67829 0.778465,8.09362 -6.369427,10.19108 -5.373855,-0.78326 -8.042862,-4.27136 -8.280255,-10.19108 4.317522,-8.614163 8.367467,-5.493713 12.101911,-5.095545 l 11.464968,-5.095542 c 1.800818,1.460624 4.017117,2.817377 2.547771,5.095542 z"
             id="path8052"
             style="fill:none;stroke:#000000;stroke-width:1px;stroke-linecap:butt;stroke-linejoin:miter;stroke-opacity:1" />
          <path
             d="m 108.09276,77.537477 5.62983,-3.377899 c -1.76307,-5.22581 1.1013,-7.752274 6.5306,-8.782536 6.14537,0.310167 8.10572,4.80536 7.65657,11.710048 -2.67998,5.145016 -6.40375,6.636802 -11.48485,3.377899 l -2.47713,0.900773 0.45039,0.450387"
             id="path8120"
             style="fill:none;stroke:#000000;stroke-width:1px;stroke-linecap:butt;stroke-linejoin:miter;stroke-opacity:1" />
          <path
             d="m 102.01254,75.285544 c -1.27253,-4.500296 3.54307,-9.443073 11.25966,-6.530604"
             id="path8122"
             style="fill:none;stroke:#000000;stroke-width:1px;stroke-linecap:butt;stroke-linejoin:miter;stroke-opacity:1" />
          <path
             d="m 85.573432,77.537477 -4.954251,4.954251 c 16.316362,2.633954 24.811879,17.838492 34.004179,28.824732 -14.36171,9.60093 -19.017231,-18.085971 -29.275121,-5.85502 l -10.246292,-13.399 c -2.181056,-3.426545 -6.356442,-8.365181 -7.994361,-12.94861 -3.939788,2.936984 -7.1688,-0.167634 -9.908502,-7.431377 1.426224,-2.134922 2.852447,-3.253759 4.278671,-1.801546 -0.318107,-6.455785 -4.912191,-18.50323 1.801546,-15.763527 0.863186,-1.351225 0.627882,-4.020639 4.278672,-2.02674 4.01763,-5.130128 10.004503,3.524453 15.087947,5.855025 5.623088,-1.062362 7.43246,3.170298 5.855024,9.908503 2.141736,6.899542 -0.37713,7.973332 -2.927512,9.007729 l 0.225193,1.125966 -0.225193,0"
             id="path8124"
             style="fill:#b84e2c;fill-opacity:1;fill-rule:evenodd;stroke:#000000;stroke-width:1px;stroke-linecap:butt;stroke-linejoin:miter;stroke-opacity:1" />
          <path
             d="m 244.10947,263.3219 c -9.36941,-0.9886 -7.47145,6.63479 -3.1527,15.53833 9.9861,10.42525 25.74629,25.0494 23.4201,40.3096 0.3694,9.02114 -6.04783,12.56606 -16.88949,9.9085 -3.03699,-2.0757 -6.05375,-5.29925 -0.67559,-9.00773 5.16412,-1.39592 4.84163,2.11017 4.72907,5.40463 7.15674,3.65081 9.73653,-1.41403 8.10695,-8.55734 -2.01239,-8.54204 -8.61591,-15.24514 -14.63756,-22.06893 -15.83927,-22.01877 -11.80534,-28.91011 -8.33215,-32.87822 3.45296,-1.6258 6.90593,-3.56969 10.35889,-1.12596 2.26068,2.32918 3.70425,4.1163 2.25193,5.85502 -3.12962,2.63496 -5.86555,0.42872 -5.17945,-3.3779 z"
             id="path8130"
             style="fill:#000000;fill-opacity:1;fill-rule:evenodd;stroke:#000000;stroke-width:1px;stroke-linecap:butt;stroke-linejoin:miter;stroke-opacity:1" />
          <path
             d="m 349.49991,261.97074 c 3.35166,7.53653 -12.60882,1.71088 -15.98872,-0.90077 l -30.40109,-23.4201 c -12.78785,-8.84822 -14.06449,-6.70086 -20.04219,-5.40464 -1.44848,2.05074 -4.3731,3.43051 0.45038,8.33215 4.51537,2.11331 4.74633,-0.0578 5.17945,-2.02673 l -3.60309,-2.47713 c 2.75024,-5.83253 9.42398,-0.8117 13.0612,2.25193 11.0063,9.43924 22.20798,20.05072 32.65302,26.12242 9.08802,5.10145 14.70057,3.8312 20.2674,2.47712 3.4968,-1.45033 2.85406,-4.67475 2.25193,-7.88176 -2.79692,-2.89667 -5.91656,-4.66385 -9.90851,-3.3779 -3.40127,2.69657 0.24877,5.48542 6.08022,6.30541 z"
             id="path8132"
             style="fill:#000000;fill-opacity:1;fill-rule:evenodd;stroke:#000000;stroke-width:1px;stroke-linecap:butt;stroke-linejoin:miter;stroke-opacity:1" />
          <path
             d="m 264.82725,281.56255 -2.70232,-14.41236 c 13.10977,-18.38653 27.13279,-23.98753 41.43556,-25.67203 l -3.1527,19.36662 -35.58054,20.71777 z"
             id="path8134"
             style="fill:#d5b29b;fill-opacity:1;fill-rule:evenodd;stroke:#000000;stroke-width:1px;stroke-linecap:butt;stroke-linejoin:miter;stroke-opacity:1" />
          <path
             d="m 300.40779,307.68497 c 7.64335,-7.96476 16.14915,-15.41204 29.7255,-19.817 6.90593,10.79251 13.81185,21.21677 20.71778,37.83246 14.43105,25.63466 41.78133,46.59903 50.89368,59.45101 l -21.61856,13.96199 c -14.33943,-19.0282 -9.07686,-28.52074 -41.43555,-60.35179 -13.49669,-9.3779 -28.15528,-17.20661 -38.28285,-31.07667 z"
             id="path8136"
             style="fill:#000000;fill-opacity:1;fill-rule:evenodd;stroke:#000000;stroke-width:1px;stroke-linecap:butt;stroke-linejoin:miter;stroke-opacity:1" />
          <path
             d="m 304.01088,310.83768 c 9.30799,-10.24983 18.61597,-15.98531 27.92396,-20.2674"
             id="path8138"
             style="fill:none;stroke:#000000;stroke-width:1px;stroke-linecap:butt;stroke-linejoin:miter;stroke-opacity:1" />
          <path
             d="M 96.178344,91.719745 115.28662,81.528662"
             id="path8140"
             style="fill:none;stroke:#000000;stroke-width:1px;stroke-linecap:butt;stroke-linejoin:miter;stroke-opacity:1" />
          <path
             d="M 305.73248,303.18471 268.78981,259.23567 100,89.808917 l 0,0"
             id="path8142"
             style="fill:none;stroke:#858585;stroke-width:1px;stroke-linecap:butt;stroke-linejoin:miter;stroke-opacity:1" />
          <path
             d="M 311.46497,298.08917 277.07006,250.95541 104.4586,87.261146"
             id="path8144"
             style="fill:none;stroke:#858585;stroke-width:1px;stroke-linecap:butt;stroke-linejoin:miter;stroke-opacity:1" />
          <path
             d="M 319.74522,291.71975 287.26115,244.58599 108.9172,84.076433 l 0,0 1.27388,0"
             id="path8146"
             style="fill:none;stroke:#858585;stroke-width:1px;stroke-linecap:butt;stroke-linejoin:miter;stroke-opacity:1" />
          <path
             d="M 327.38854,287.89809 296.81529,242.67516 114.01274,82.165605 l 0,0"
             id="path8148"
             style="fill:none;stroke:#858585;stroke-width:1px;stroke-linecap:butt;stroke-linejoin:miter;stroke-opacity:1" />
          <g
             id="g15943">
            <path
               d="m 134.3949,224.84076 c -5.47715,43.94904 51.2832,49.68153 45.22293,68.78981 l 3.82166,1.27389 c 24.30008,-22.51546 45.68328,15.55836 45.70164,28.54859 10.02233,-13.91126 -13.96132,-75.87317 -51.23847,-51.34861 1.52816,-17.69681 -23.02411,-15.53545 -43.2371,-46.38981"
               id="path8150"
               style="fill:#af412a;fill-opacity:1;fill-rule:evenodd;stroke:#000000;stroke-width:1px;stroke-linecap:butt;stroke-linejoin:miter;stroke-opacity:1" />
          </g>
          <path
             d="m 213.93358,334.25777 c 26.368,2.23437 20.04345,35.03875 34.67976,56.29831 38.09673,40.65696 71.56901,36.70118 105.84082,27.02319 47.21026,-21.45711 77.91564,-51.86461 87.04845,-80.97231 -4.13617,20.22984 1.95467,33.94443 -44.05038,73.58412 -45.10816,34.02957 -63.63478,32.61708 -84.07643,33.75796 -33.70465,-2.60108 -52.31778,-20.29369 -67.51593,-41.40127 -12.31281,-16.56249 -8.22738,-41.56021 -25.4777,-43.94904 -4.15339,-1.59493 -2.41032,-4.98312 -1.27389,-7.00637 l -1.27389,-11.46497 c -3.34561,-0.54041 -2.58624,-3.5438 -3.18471,-5.73249"
             id="path8152"
             style="fill:#af412a;fill-opacity:1;fill-rule:evenodd;stroke:#000000;stroke-width:1px;stroke-linecap:butt;stroke-linejoin:miter;stroke-opacity:1" />
          <path
             d="m 306.488,193.512 c 0.88494,2.49159 1.52787,4.82184 -1.12596,4.95425 l 0,13.96198 c 1.82596,4.10059 2.33332,7.27817 -3.3779,6.41801 -19.88283,-21.96631 2.2644,-17.66584 4.27867,-26.00982"
             id="path8128"
             style="fill:#af412a;fill-opacity:1;fill-rule:evenodd;stroke:#000000;stroke-width:1px;stroke-linecap:butt;stroke-linejoin:miter;stroke-opacity:1" />
          <path
             d="m 103.13647,81.187367 11.19134,-5.671337 c -1.74151,-6.598346 -1.18858,-8.043629 5.84354,-10.501465 5.4067,0.509279 8.24945,3.857301 8.78723,9.75732 -3.87438,8.822352 -8.0776,5.911652 -11.82745,5.703691 l -11.19133,5.671336 c -1.87269,-1.36726 -4.15505,-2.60968 -2.80333,-4.959545 z"
             id="path16989"
             style="fill:#000000;fill-opacity:1;fill-rule:evenodd;stroke:#000000;stroke-width:1px;stroke-linecap:butt;stroke-linejoin:miter;stroke-opacity:1" />
          <path
             d="m 91.426426,79.836208 11.191344,-5.671337 c -1.74151,-6.598346 -1.18858,-8.043629 5.84354,-10.501465 5.4067,0.509279 8.24945,3.857301 8.78723,9.75732 -3.87438,8.822352 -8.0776,5.911652 -11.82745,5.703691 l -11.191334,5.671336 c -1.87269,-1.36726 -4.15505,-2.60968 -2.80333,-4.959545 z"
             id="path16987"
             style="fill:#000000;fill-opacity:1;fill-rule:evenodd;stroke:#000000;stroke-width:1px;stroke-linecap:butt;stroke-linejoin:miter;stroke-opacity:1" />
          <path
             d="m 177.07006,271.33758 3.82166,23.56688 0,0"
             id="path16007"
             style="fill:none;stroke:#000000;stroke-width:1px;stroke-linecap:butt;stroke-linejoin:miter;stroke-opacity:1" />
        </g>
        <g
           id="layer5">
          <path
             d="m 93.817129,99.176502 -11.464968,5.095538 c 1.404091,6.67829 0.778465,8.09362 -6.369427,10.19108 -5.373855,-0.78326 -8.042862,-4.27136 -8.280255,-10.19108 4.317522,-8.614158 8.367467,-5.493708 12.101911,-5.095538 l 11.464968,-5.09554 c 1.800818,1.46062 4.017117,2.81737 2.547771,5.09554 z"
             id="path8093"
             style="fill:#000000;fill-opacity:1;fill-rule:evenodd;stroke:#000000;stroke-width:1px;stroke-linecap:butt;stroke-linejoin:miter;stroke-opacity:1" />
          <path
             d="m 84.359014,91.970319 -11.464968,5.09554 c 1.404091,6.678291 0.778465,8.093621 -6.369427,10.191081 -5.373855,-0.78326 -8.042862,-4.27136 -8.280255,-10.191081 4.317522,-8.61416 8.367467,-5.49371 12.101911,-5.09554 l 11.464968,-5.09554 c 1.800818,1.46062 4.017117,2.81737 2.547771,5.09554 z"
             id="path8054"
             style="fill:#000000;fill-opacity:1;fill-rule:evenodd;stroke:#000000;stroke-width:1px;stroke-linecap:butt;stroke-linejoin:miter;stroke-opacity:1" />
        </g>
      </g>
      <g
         transform="matrix(0.01112781,0,0,0.01112781,218.68678,412.31204)"
         id="g3871"
         style="fill-rule:evenodd">
        <g
           id="Ebene 1">
          <path
             d="m 2920,2272 c -85,-27 -140,-115 -203,-186 -216,-243 -330,-632 -353,-701 -21,-64 -15,-299 -56,-456 -16,-61 6,-373 10,-448 2,-38 -13,-111 -17,-178 -3,-66 5,-127 5,-127 0,0 9,-18 53,0 44,18 418,357 515,467 97,110 352,397 410,546 22,59 68,98 97,190 45,145 62,352 62,352 220,-224 550,-194 550,-194 48,-83 88,-48 150,-57 61,-9 66,44 66,44 321,-9 551,269 551,269 15,-584 484,-991 889,-1322 l 349,-172 c 83,111 52,260 52,260 0,0 -66,591 -92,670 -27,79 -164,473 -357,756 -193,282 -406,500 -406,500 294,73 112,790 97,943 -16,154 -292,509 -567,666 -276,158 -807,193 -876,240 -29,18 -86,136 -164,264 -115,187 -254,441 -230,815 39,630 443,1083 443,1083 118,-119 236,-40 236,-40 197,40 557,-59 754,-177 55,-33 196,-192 273,-293 199,-256 390,-553 390,-671 0,-119 -39,-119 0,-237 40,-118 79,-157 79,-275 0,-46 -90,-205 39,-197 40,2 87,37 79,39 -8,3 0,394 0,394 l 315,-236 c 78,-59 244,-17 260,0 16,17 -205,109 -236,118 408,-39 123,105 39,118 55,18 193,-3 173,39 -22,48 -196,79 -236,158 -18,37 -37,115 -79,157 -47,48 -118,58 -118,79 0,20 -113,310 -315,591 -94,131 -192,298 -315,393 -139,108 -302,137 -354,158 -52,21 -630,197 -630,197 256,826 532,1191 709,1456 177,266 295,433 393,512 197,158 709,118 985,-276 275,-393 630,-1220 748,-1456 118,-236 472,-433 708,-512 237,-79 158,79 119,157 -40,79 -315,197 -473,630 -157,433 -236,827 -236,985 0,157 -669,1338 -906,1496 -236,157 -590,157 -590,157 l -512,-39 -39,590 c 0,118 0,197 196,197 197,0 591,-39 591,-39 113,11 354,39 472,79 235,78 77,133 -275,78 447,110 499,274 39,158 404,118 512,236 0,157 197,40 551,197 236,197 -86,0 -215,-67 -413,-97 -62,-10 -298,-74 -413,-100 -256,-57 -455,-54 -709,-118 -138,-276 -308,-701 -354,-866 -47,-165 78,-669 78,-669 -787,39 -1417,-236 -1417,-236 l -39,826 c -9,193 118,324 118,473 0,207 0,197 -118,354 -85,114 -473,39 -512,39 -79,0 -787,40 -866,40 -373,-68 20,-175 79,-158 -430,48 -311,-110 0,-118 -434,0 -434,-79 39,-118 -177,0 -428,-4 -394,-39 19,-20 56,-79 197,-79 394,0 709,-39 945,0 236,39 236,39 276,39 39,0 0,-78 -40,-157 -39,-79 0,-39 -79,-158 -78,-118 -236,-354 -354,-433 -52,-34 -212,-269 -315,-551 -132,-362 -157,-945 -118,-1023 39,-79 39,-119 276,-119 -78,-168 -101,-303 -119,-393 -36,-185 0,-499 0,-551 0,-53 79,-630 79,-630 -132,-14 -355,-108 -590,-276 -466,-332 -985,-853 -985,-905 0,-57 -354,19 -354,-158 0,-34 39,-79 118,-79 -23,-23 -59,-25 -79,-39 -30,-23 -39,-55 -39,-79 0,-13 38,-49 79,-39 41,10 85,66 118,79 -37,-50 -94,-78 -118,-119 -14,-24 -9,-67 0,-78 24,-30 157,0 275,118 0,-236 0,-394 79,-315 79,79 40,39 79,118 18,37 12,106 39,157 32,58 97,98 118,119 40,39 0,157 0,157 0,0 -39,79 40,158 38,38 263,329 551,551 303,232 748,393 709,393 -40,0 157,-748 157,-748 0,0 20,-451 197,-866 117,-275 355,-489 512,-708 -143,178 -378,456 -551,590 -210,162 -351,161 -394,118 -42,-41 -99,-50 -118,-118 -22,-77 38,-215 78,-275 -314,78 -590,-79 -629,-79 -40,0 -79,-40 -158,-197 -29,-59 -38,-122 -39,-197 -2,-70 4,-153 -40,-197 -30,-30 161,-62 394,-39 233,22 509,100 591,118 354,-39 669,-315 669,-354 -80,-33 -114,-69 -158,-118 -20,-23 -69,-93 -78,-119 -21,-55 0,-86 0,-118 0,-78 78,-157 118,-197 19,-19 -15,-78 0,-118 15,-39 79,-59 79,-78 0,-40 -394,196 -434,196 -207,0 40,-214 237,-354 126,-89 216,-125 203,-129 z"
             id="path3764"
             style="fill:#ef9a48" />
          <path
             d="m 3032,2204 c -355,-512 -433,-708 -473,-866 -39,-157 -118,-709 -79,-709 40,0 158,-39 276,79 118,118 354,512 354,551 0,40 79,197 118,237 16,16 19,90 40,157 31,99 79,197 79,197 -79,79 -197,315 -197,315 l -118,39 z"
             id="path3766"
             style="fill:#f7c5b4;stroke:#f7c5b4;stroke-width:3" />
          <path
             d="m 4921,2283 c 0,-709 276,-1063 433,-1220 158,-158 512,-473 512,-473 40,591 -78,827 -197,984 -118,158 -196,315 -196,315 l -355,512 c -118,-118 -197,-118 -197,-118 z"
             id="path3768"
             style="fill:#f7c5b4;stroke:#f7c5b4;stroke-width:3" />
          <g
             id="g3770">
            <path
               d="m 4764,1811 -4,-18 c 0,0 -230,-278 -551,-269 0,0 -5,-53 -66,-44 -62,9 -102,-26 -150,57 0,0 -330,-30 -559,214 l -127,178 c 0,0 -118,197 -157,236 -40,39 -158,79 -230,107 -73,29 -77,40 -203,129 -197,140 -444,354 -237,354 40,0 434,-236 434,-196 275,-119 393,-119 511,-119 118,0 315,-39 433,-78 119,-40 433,-118 552,-118 118,0 315,0 354,0 0,-25 0,-63 0,-118 0,-122 0,-288 0,-315 z"
               id="path3772"
               style="fill:#667ab3" />
            <path
               d="m 3150,2440 c 118,-78 275,-314 315,-433 39,-118 275,-275 275,-275 0,0 237,-197 276,-158 39,40 -39,79 -39,79 0,0 -197,197 -237,276 -39,78 -236,315 -236,354 0,39 0,39 -39,79 -40,39 -315,78 -315,78 z"
               id="path3774"
               style="fill:#da251d" />
            <path
               d="m 4016,2283 c -59,0 -197,-39 -197,-39 0,0 236,-591 236,-630 0,-40 40,0 40,0 0,0 0,78 0,118 0,39 -79,236 -79,315 0,79 59,236 0,236 z"
               id="path3776"
               style="fill:#da251d" />
            <path
               d="m 4134,1653 c 79,79 276,512 236,551 -39,40 -157,40 -157,40 0,0 -40,0 -40,-40 0,-39 40,-39 40,-78 0,-40 39,-119 0,-197 -40,-79 -79,-237 -79,-237 l 0,-39 z"
               id="path3778"
               style="fill:#da251d" />
            <path
               d="m 4134,1574 c 79,79 394,630 433,630 39,0 118,40 158,0 39,-39 -40,-118 -40,-118 0,0 -275,-354 -315,-394 -39,-39 -197,-118 -197,-118 l -39,0 z"
               id="path3780"
               style="fill:#da251d" />
            <path
               d="m 4209,1524 -216,13 c 48,-83 88,-48 150,-57 61,-9 66,44 66,44 z"
               id="path3782"
               style="fill:#1f1a17;stroke:#1f1a17;stroke-width:3" />
          </g>
          <g
             id="g3784">
            <path
               d="m 3934,2795 c 197,-40 276,-79 512,79"
               id="path3786"
               style="fill:none;stroke:#1f1a17;stroke-width:3" />
            <path
               d="m 3855,3149 c 0,-157 158,-394 315,-315 158,79 197,197 158,315 -24,70 0,118 -118,197 -119,79 -306,-52 -315,-79 l -40,-118 z"
               id="path3788"
               style="fill:#ffffff" />
            <path
               d="m 3973,3110 c 0,-118 79,-197 158,-197 79,0 157,157 118,236 -39,79 -118,118 -158,118 -39,0 -39,0 -78,-39 -40,-39 -40,-118 -40,-118 z"
               id="path3790"
               style="fill:#98af85" />
            <path
               d="m 4052,3110 c 0,-40 39,-79 39,-79 0,0 40,0 40,39 0,40 0,40 0,79 0,40 -40,40 -40,40 0,0 -39,0 -39,-40 0,-39 0,-39 0,-39 z"
               id="path3792"
               style="fill:#1f1a17;stroke:#1f1a17;stroke-width:3" />
          </g>
          <path
             d="m 2874,2637 c 118,-39 236,-39 276,0"
             id="path3794"
             style="fill:none;stroke:#1f1a17;stroke-width:3" />
          <path
             d="m 2992,3267 c -49,-37 -99,-93 -118,-118 -54,-71 -50,-167 0,-236 34,-47 74,-79 118,-79 79,0 118,40 118,40 40,157 -118,393 -118,393 z"
             id="path3796"
             style="fill:#98af85" />
          <path
             d="m 2954,3106 c 8,0 11,9 25,0 20,-13 26,-32 26,-32 0,0 21,-77 0,-93 -37,-27 -34,-27 -51,0 -28,46 -35,125 0,125 z"
             id="path3798"
             style="fill:#1f1a17;stroke:#1f1a17;stroke-width:3" />
          <path
             d="m 4252,8858 c 354,-315 788,-394 866,-355"
             id="path3800"
             style="fill:none;stroke:#1f1a17;stroke-width:3" />
          <path
             d="m 5236,9566 c 79,-314 79,-787 79,-787"
             id="path3802"
             style="fill:none;stroke:#1f1a17;stroke-width:3" />
          <g
             id="g3804">
            <path
               d="m 2244,4488 c 59,39 156,-5 241,-64 66,-46 125,-101 153,-133 l 315,-354 c -158,118 -709,315 -709,315 -29,59 -37,107 -34,143 3,62 34,93 34,93 z"
               id="path3806"
               style="fill:#ffffff" />
            <path
               d="m 2485,4424 c -26,-3 -55,-53 -83,-54 -28,-2 -55,46 -79,39 -18,-5 -21,-38 -39,-39 -23,-3 -51,28 -74,25 3,62 34,93 34,93 59,39 156,-5 241,-64 z"
               id="path3808"
               style="fill:#98af85" />
          </g>
          <path
             d="m 1662,3661 c 0,-39 0,-79 -79,-79 -79,0 -276,0 -276,0 0,0 34,53 40,79 47,216 315,67 315,0 z"
             id="path3810"
             style="fill:#1f1a17;stroke:#1f1a17;stroke-width:3" />
          <path
             d="m 2953,7165 -158,39 c 0,-39 0,-39 0,-39 l 158,-39 0,39 z"
             id="path3812"
             style="fill:#1f1a17;stroke:#1f1a17;stroke-width:3" />
          <path
             d="m 2520,7559 4,-2 1,-1 546,-234 39,-78 c 0,0 -78,-79 -157,-79 l 0,-39 -158,39 c 0,0 0,0 0,39 0,0 -39,0 -78,40 0,0 -56,55 -73,119 -1,1 -1,2 -1,3 -3,11 -5,23 -5,35 l -26,13 0,0 -53,26 c 0,0 -39,40 -79,40 -39,0 -39,79 40,79 z"
             id="path3814"
             style="fill:none;stroke:#1f1a17;stroke-width:3" />
          <path
             d="m 2835,2755 c -74,74 -161,203 -118,315 9,26 58,96 78,119 44,49 78,85 158,118 79,-40 39,-40 39,-40 -49,-37 -99,-93 -118,-118 -54,-71 -50,-167 0,-236 34,-47 74,-79 118,-79 79,0 118,40 118,40 0,-40 0,-79 0,-79 -118,-79 -275,-40 -275,-40 z"
             id="path3816"
             style="fill:#ffffff;stroke:#1f1a17;stroke-width:3" />
          <path
             d="m 2284,8070 c -78,-168 -101,-303 -119,-393 -36,-185 0,-499 0,-551 0,-53 79,-630 99,-749 -20,-118 177,-866 177,-866 394,-157 433,-118 591,-78 157,39 275,118 315,354 39,236 0,551 0,709 0,157 78,472 393,826 315,355 473,788 473,985 0,196 -118,511 -473,630 -354,118 -590,196 -708,236 -355,118 -512,-355 -512,-355 l -236,-748 z"
             id="path3818"
             style="fill:#f7c5b4;stroke:#f7c5b4;stroke-width:3" />
          <g
             id="g3820">
            <path
               d="m 2559,7440 c -157,-196 -118,-354 -118,-354 l 276,158 c 39,-40 78,-40 78,-40 0,-39 0,-39 0,-39 l 158,-39 0,39 c 79,0 157,79 157,79 118,-197 276,-276 315,-276 40,0 118,39 40,158 -79,118 -197,314 -197,314 79,40 118,197 0,355 -118,157 -473,118 -473,118 -39,118 -275,197 -275,197 -118,0 -40,-158 -40,-158 -157,118 -236,-39 -236,-39 l -39,-118 c 197,39 236,39 315,0 79,-40 79,-118 79,-118 0,0 0,-118 -79,-118 -79,0 -79,-79 -40,-79 40,0 79,-40 79,-40 z"
               id="path3822"
               style="fill:#f5c491;stroke:#969594;stroke-width:3" />
            <path
               d="m 2554,7400 c -113,-122 -108,-279 -108,-279 l 270,167 c -118,-4 -162,112 -162,112 z"
               id="path3824"
               style="fill:url(#radialGradient3923);stroke:#969594;stroke-width:3" />
            <path
               d="m 3150,7244 c 78,-79 275,-315 275,-197 0,118 -157,354 -157,354 0,-79 -118,-157 -118,-157 z"
               id="path3826"
               style="fill:url(#id1);stroke:#969594;stroke-width:3" />
          </g>
          <g
             id="g3828">
            <path
               d="m 2520,7559 4,-2 1,-1 546,-234 39,-78 c 0,0 -78,-79 -157,-79 l 0,-39 -158,39 c 0,0 0,0 0,39 0,0 -39,0 -78,40 0,0 -56,55 -73,119 -1,1 -1,2 -1,3 -3,11 -5,23 -5,35 l -26,13 0,0 -53,26 c 0,0 -39,40 -79,40 -39,0 -39,79 40,79 z"
               id="path3830"
               style="fill:#1f1a17;stroke:#1f1a17;stroke-width:3" />
            <path
               d="m 2480,7519 c 0,0 79,-39 119,-79 39,-39 78,-23 78,-78 0,-40 35,-50 59,-82 31,-39 72,-76 138,-76 118,0 158,0 197,40 39,39 -39,78 -39,78 l -512,197 c -40,0 -40,0 -40,0 z"
               id="path3832"
               style="fill:#da251d;stroke:#da251d;stroke-width:3" />
            <path
               d="m 3032,7244 c 0,-40 -158,0 -197,0 -40,0 -118,118 -118,157 0,39 315,-79 315,-118 0,-39 0,-39 0,-39 z"
               id="path3834"
               style="fill:#84c225;stroke:#84c225;stroke-width:3" />
            <path
               d="m 2835,7362 c 0,-40 0,-118 39,-118 40,0 79,78 79,78 l -118,40 z"
               id="path3836"
               style="fill:#da251d;stroke:#da251d;stroke-width:3" />
          </g>
          <path
             d="m 3129,7632 c -145,0 -145,-113 0,-113 60,0 60,57 60,57 0,56 -60,56 -60,56 z"
             id="path3838"
             style="fill:#ffffff;stroke:#ffffff;stroke-width:3" />
          <path
             d="m 2480,7952 c 0,0 -78,158 40,158 0,0 236,-79 275,-197 40,-118 0,-158 0,-158 -196,197 -315,197 -315,197 z"
             id="path3840"
             style="fill:#1f1a17;stroke:#1f1a17;stroke-width:3" />
          <path
             d="m 2638,7637 c 0,-78 29,-143 79,-118 78,40 0,158 0,158 -51,51 -79,4 -79,-40 z"
             id="path3842"
             style="fill:#ffffff;stroke:#ffffff;stroke-width:3" />
          <path
             d="m 2683,7623 c 0,-33 28,-33 28,0 0,14 -14,14 -14,14 -14,0 -14,-14 -14,-14 z"
             id="path3844"
             style="fill:#1f1a17;stroke:#1f1a17;stroke-width:3" />
          <path
             d="m 3103,7584 c 0,-34 28,-34 28,0 0,14 -14,14 -14,14 -14,0 -14,-14 -14,-14 z"
             id="path3846"
             style="fill:#1f1a17;stroke:#1f1a17;stroke-width:3" />
          <path
             d="m 3053,7480 c 79,-40 157,0 157,0"
             id="path3848"
             style="fill:none;stroke:#1f1a17;stroke-width:3" />
          <path
             d="m 2520,7992 c 118,0 275,-197 275,-197 0,79 -78,197 -157,236 -79,39 -158,0 -158,0 -39,-39 40,-39 40,-39 z"
             id="path3850"
             style="fill:#98af85;stroke:#98af85;stroke-width:3" />
          <path
             d="m 2349,7820 35,93 -140,0 -39,-118 c 61,12 108,21 144,25 z"
             id="path3852"
             style="fill:#1f1a17;stroke:#1f1a17;stroke-width:3" />
          <path
             d="m 3413,7717 c -21,9 -32,97 -25,197 8,100 31,175 53,166 21,-9 32,-98 25,-198 -8,-100 -31,-174 -53,-165 z"
             id="path3854"
             style="fill:#ef9a48;stroke:#838281;stroke-width:3" />
          <path
             d="m 3335,7864 c -22,9 -33,98 -25,198 7,100 31,174 52,165 21,-9 33,-97 25,-197 -7,-100 -31,-175 -52,-166 z"
             id="path3856"
             style="fill:#ef9a48;stroke:#838281;stroke-width:3" />
          <path
             d="m 3371,7790 c -22,9 -33,98 -26,198 8,100 32,174 53,166 21,-9 33,-98 25,-198 -8,-100 -31,-174 -52,-166 z"
             id="path3858"
             style="fill:#ef9a48;stroke:#838281;stroke-width:3" />
          <path
             d="m 3504,7937 c 79,-147 158,-147 158,-147"
             id="path3860"
             style="fill:none;stroke:#1f1a17;stroke-width:3" />
        </g>
      </g>
    </g>
  </g>
</svg>
